<?xml version="1.0" encoding="utf-8"?>
<!-- Generator: Adobe Illustrator 28.0.0, SVG Export Plug-In . SVG Version: 6.00 Build 0)  -->
<svg version="1.1" id="Calque_1" xmlns="http://www.w3.org/2000/svg" xmlns:xlink="http://www.w3.org/1999/xlink" x="0px" y="0px"
	 viewBox="0 0 2000 2000" style="enable-background:new 0 0 2000 2000;" xml:space="preserve">
<style type="text/css">
	.st0{fill:#EF4136;}
	.st1{fill:#ED1C24;}
	.st2{fill:#FFFFFF;}
	.st3{display:none;fill:#151515;}
	.st4{font-family:'Kometa-Bold';}
	.st5{font-size:205.1696px;}
	.st6{letter-spacing:15;}
	.st7{display:none;}
	.st8{font-family:'Kometa-Regular';}
	.st9{font-size:73.861px;}
	.st10{letter-spacing:7;}
</style>
<path class="st0" d="M1466.66,1092.98c11.78-41.37,39.62-159.69-9.31-296.94c-13.78-38.66-54.82-137.75-157.26-218.31
	c-126.44-99.43-264.21-103.27-294.87-103.46c-190.69-1.21-314.36,112.41-341.43,138.64c-25.77,24.97-174.48,169.07-137.61,324.88
	c7.66,32.39,16.96,71.68,50.7,95.19c79.57,55.43,192.41-48.52,339.36,2.07c37.86,13.03,60.81,30.42,72.42,40.35
	c50.32,43.05,67.25,99.94,73.46,128.3c-5.3-9.33-35.47-60.35-94.15-71.39c-48.32-9.09-88.16,14.17-99.33,20.69
	c-37.02,21.62-35.21,41.15-74.49,65.18c-5.32,3.26-43.68,26.25-82.77,26.9c-69,1.15-121.1-67.61-142.78-96.22
	c-89.03-117.5-159.54-404.57,5.17-625.96c164.94-221.69,442.43-211.74,455.24-211.07c32.55,1.72,242.77,16.36,386.95,197.62
	c126.2,158.65,115.48,336.42,110.71,384.88C1517.96,982.79,1488.61,1051.23,1466.66,1092.98z"/>
<path class="st1" d="M528.77,476.33C506.7,502.06,337.12,706.7,392.71,979.17c41.71,204.45,184.27,319.95,241.07,360.05
	c201.97,142.61,421.26,109.7,488.35,96.22c53.1-10.67,238.47-50.89,372.47-223.48c34.66-44.65,164.13-224.69,117.95-458.34
	c-27.8-140.67-106.01-233.66-144.85-274.18c40.21,30.58,97.42,81.25,147.95,157.26c111.93,168.39,110.92,340.58,108.12,397.82
	c-1.93,39.49-14.23,213.36-142,379.97c-23.37,30.47-107.8,135.19-259.18,206.41c-31.37,14.76-181.74,82.71-384.88,64.41
	c-149.37-13.46-255.35-67.08-284.01-82.25c-52.51-27.81-268.07-141.98-349.97-404.28c-10.17-32.58-81.6-275,51.21-518.35
	C410.13,579.3,481.12,513.68,528.77,476.33z"/>
<path class="st2" d="M580.58,1099.52c6.38,16.99,19.5,45.46,45.26,69.92c11.39,10.82,67.69,61.13,132.51,38.43
	c33.42-11.71,54.26-37.63,64.42-52.78c-20.92,8.3-65.36,22.32-120.68,11.58C638.52,1154.32,597.01,1116.36,580.58,1099.52z"/>
<path class="st2" d="M-37.99,505.42"/>
<text transform="matrix(1 0 0 1 425.1696 1411.901)" class="st3 st4 st5 st6">ANTARÈS</text>
<text transform="matrix(1 0 0 1 313.6378 1554.9283)" class="st7 st8 st9 st10">UNLEASH DIGITAL POTENTIAL</text>
</svg>
